<svg id="Layer_1" data-name="Layer 1" xmlns="http://www.w3.org/2000/svg" viewBox="0 0 23.27 18.94"><defs><style>.cls-1{fill:#054833;stroke:#7cc242;stroke-miterlimit:10;stroke-width:0.5px;isolation:isolate;}.cls-2{fill:#7cc243;}</style></defs><circle class="cls-1" cx="10.53" cy="9.47" r="9.22"/><path class="cls-2" d="M22.63,8.53c-.15-.06-.55-.53-2.35-.38a38.55,38.55,0,0,0-4.55,1.29L10.57,7.36,9,7.52l4.14,2.72c-1.43.44-2.94.89-4.4,1.28l-3-2.11-.84.23,2.57,3.28-.74,1.54,1.08-.13.71-1a34.72,34.72,0,0,0,6-.71l-1,4.05,1.28-.54,2-4C23,10.61,23.5,9.47,23.62,9.16S22.78,8.59,22.63,8.53Z" transform="translate(-0.36 -2.53)"/><polygon class="cls-2" points="2.47 15.77 12.8 13.88 13 12.75 2.47 15.77"/><polygon class="cls-2" points="1.29 14.18 13.2 11.8 13.44 10.6 1.29 14.18"/><polygon class="cls-2" points="6.14 11.46 0.6 12.6 6.49 10.77 6.14 11.46"/><polygon class="cls-2" points="6.17 9.82 0.25 11.15 5.75 9.34 6.17 9.82"/><polygon class="cls-2" points="5.26 8.49 0 9.7 4.84 8.01 5.26 8.49"/></svg>